<svg xmlns="http://www.w3.org/2000/svg" width="209" height="49" viewBox="0 0 209 49" fill="none"><path d="M13.8981 45.782H0L26.6271 0H45.1484L50.2784 8.99289L43.125 21.0515L34.9496 8.37974L13.8981 45.782Z" fill="#E9423C"></path><path d="M27.1831 31.6798L34.9497 19.4168L42.7163 32.4973L60.2933 2.24854H75.6221L48.6761 48.2349H37.0426L27.1831 31.6798Z" fill="#E9423C"></path><path d="M98.6065 33.524L102.742 40.8214H95.55L91.9354 34.3579H88.4603L87.1737 40.8214H80.2949L85.1587 16.4956H95.55C101.772 16.4956 105.349 19.3785 105.349 24.2457C105.349 28.7283 102.847 32.0639 98.6065 33.524ZM94.5732 21.9176H90.9585L89.4984 29.0414H93.5998C96.6222 29.0414 98.3955 27.5813 98.3955 24.906C98.3955 22.857 96.9353 21.9176 94.5732 21.9176Z" fill="white"></path><path d="M126.611 33.041H112.782C113.024 35.1241 114.45 36.0975 117.057 36.0975C118.725 36.0975 120.359 35.5767 121.608 34.5693L124.355 38.7047C121.993 40.4405 119.178 41.1383 116.329 41.1383C110.284 41.1383 106.322 37.8027 106.322 32.5543C106.322 26.2984 110.944 21.6763 117.721 21.6763C123.456 21.6763 126.999 25.0118 126.999 29.9471C126.999 31.0601 126.826 32.1016 126.618 33.041H126.611ZM113.164 29.5659H120.914C120.948 27.551 119.525 26.3699 117.405 26.3699C115.182 26.3699 113.79 27.6905 113.164 29.5659Z" fill="white"></path><path d="M156.148 16.499L151.285 40.8248H145.621L137.595 27.4792L134.92 40.8248H128.177L133.041 16.499H138.705L146.768 29.8073L149.409 16.499H156.152H156.148Z" fill="white"></path><path d="M174.494 33.524L178.629 40.8214H171.437L167.823 34.3579H164.347L163.061 40.8214H156.182L161.046 16.4956H171.437C177.659 16.4956 181.236 19.3785 181.236 24.2457C181.236 28.7283 178.735 32.0639 174.494 33.524ZM170.464 21.9176H166.849L165.389 29.0414H169.49C172.513 29.0414 174.286 27.5813 174.286 24.906C174.286 22.857 172.826 21.9176 170.464 21.9176Z" fill="white"></path><path d="M200.729 28.1399H206.812L204.763 38.3916C202.261 40.267 198.854 41.312 195.171 41.312C187.734 41.312 182.938 36.9689 182.938 30.6075C182.938 22.1631 189.16 16.0127 198.401 16.0127C203.265 16.0127 206.812 17.575 209 20.4953L204.065 24.3891C202.465 22.4081 200.59 21.7138 198.088 21.7138C193.085 21.7138 189.889 25.2944 189.889 30.1582C189.889 33.4257 192.111 35.6143 196.107 35.6143C197.22 35.6143 198.296 35.4407 199.341 35.022L200.729 28.1399Z" fill="white"></path></svg>